<?xml version="1.0" standalone="no"?><!DOCTYPE svg PUBLIC "-//W3C//DTD SVG 1.1//EN" "http://www.w3.org/Graphics/SVG/1.1/DTD/svg11.dtd"><svg t="1649927665023" class="icon" viewBox="0 0 1024 1024" version="1.1" xmlns="http://www.w3.org/2000/svg" p-id="2558" xmlns:xlink="http://www.w3.org/1999/xlink" width="200" height="200"><defs><style type="text/css">@font-face { font-family: feedback-iconfont; src: url("//at.alicdn.com/t/font_1031158_u69w8yhxdu.woff2?t=1630033759944") format("woff2"), url("//at.alicdn.com/t/font_1031158_u69w8yhxdu.woff?t=1630033759944") format("woff"), url("//at.alicdn.com/t/font_1031158_u69w8yhxdu.ttf?t=1630033759944") format("truetype"); }
</style></defs><path d="M670.633 367.836c10.285 0 20.459 0.754 30.553 1.878C673.73 241.882 537.066 146.906 381.068 146.906c-174.402 0-317.264 118.878-317.264 269.831 0 87.133 47.529 158.688 126.955 214.184l-31.732 95.441 110.911-55.619c39.686 7.857 71.526 15.936 111.13 15.936 9.957 0 19.829-0.494 29.621-1.264-6.198-21.213-9.792-43.428-9.792-66.48C400.897 480.324 519.926 367.836 670.633 367.836zM500.042 281.814c23.89 0 39.712 15.715 39.712 39.59 0 23.778-15.822 39.712-39.712 39.712-23.777 0-47.638-15.934-47.638-39.712C452.404 297.529 476.265 281.814 500.042 281.814zM278.001 361.116c-23.778 0-47.776-15.934-47.776-39.712 0-23.875 23.998-39.59 47.776-39.59 23.778 0 39.603 15.715 39.603 39.59C317.604 345.182 301.779 361.116 278.001 361.116z" p-id="2559"></path><path d="M960.195 615.123c0-126.846-126.926-230.242-269.488-230.242-150.953 0-269.843 103.396-269.843 230.242 0 127.064 118.89 230.242 269.843 230.242 31.596 0 63.465-7.969 95.197-15.922l87.021 47.65-23.859-79.287C912.748 750.031 960.195 686.678 960.195 615.123zM603.219 575.424c-15.797 0-31.732-15.716-31.732-31.746 0-15.811 15.936-31.732 31.732-31.732 23.998 0 39.713 15.922 39.713 31.732C642.932 559.708 627.217 575.424 603.219 575.424zM777.732 575.424c-15.689 0-31.514-15.716-31.514-31.746 0-15.811 15.824-31.732 31.514-31.732 23.777 0 39.711 15.922 39.711 31.732C817.443 559.708 801.51 575.424 777.732 575.424z" p-id="2560"></path></svg>